<svg width="51" height="23" viewBox="0 0 51 23" fill="none" xmlns="http://www.w3.org/2000/svg">
<path d="M6.79357 8.04901C7.28428 7.89965 7.80769 7.81999 8.35074 7.81999C10.7279 7.81999 12.7125 9.3614 13.1662 11.4106L16.5357 10.7833C15.7636 7.3022 12.3919 4.6814 8.35074 4.6814C7.42385 4.6814 6.53623 4.81881 5.70312 5.07372L6.79357 8.04901Z" fill="#9E9E9E"/>
<path d="M2.81772 18.0183L5.09676 15.6664C4.08046 14.8439 3.43928 13.643 3.43928 12.3047C3.43928 10.9684 4.08046 9.76758 5.09676 8.94708L2.81772 6.59314C1.09045 7.99117 0 10.0324 0 12.3047C0 14.579 1.09045 16.6203 2.81772 18.0183" fill="#9E9E9E"/>
<path d="M13.1662 13.205C12.7104 15.2522 10.7279 16.7916 8.35292 16.7916C7.80769 16.7916 7.2821 16.712 6.79357 16.5606L5.70312 19.5399C6.53623 19.7928 7.42604 19.9302 8.35292 19.9302C12.3898 19.9302 15.7593 17.3134 16.5357 13.8363L13.1662 13.205Z" fill="#9E9E9E"/>
<path d="M19.936 15.5869C19.8019 15.36 19.623 14.9974 19.5126 14.729C18.8682 13.157 18.8393 11.5297 19.3811 9.96875C19.9781 8.25562 21.1195 6.94656 22.5949 6.27681C24.4491 5.43823 26.4978 5.60152 28.2757 6.71132C29.404 7.39214 30.2035 8.44382 30.811 9.93277C30.8873 10.1237 30.9557 10.3258 31.024 10.5001L19.936 15.5869ZM23.639 8.8036C22.3214 9.39863 21.6429 10.6994 21.7849 12.2216L27.3605 9.69476C26.4005 8.51024 25.1539 8.11725 23.639 8.8036V8.8036ZM28.0548 14.3C28.0522 14.3 28.0522 14.3028 28.0522 14.3028L27.9364 14.2197C27.6024 14.7871 27.0843 15.2493 26.4294 15.5482C25.1828 16.1183 24.0283 15.9716 23.1972 15.205L23.1209 15.3268C23.1209 15.3268 23.1209 15.324 23.1183 15.324L21.7034 17.5519C22.0558 17.8093 22.4319 18.0252 22.8264 18.1995C24.3886 18.8831 25.9876 18.8499 27.563 18.1303C28.7018 17.61 29.596 16.8185 30.2061 15.8139L28.0548 14.3ZM34.898 3V15.3821L36.7285 16.1626L35.6896 18.7143L33.6698 17.8287C33.2174 17.6211 32.9071 17.3056 32.6757 16.9486C32.4521 16.586 32.2864 16.0851 32.2864 15.4153V3H34.898ZM39.6372 12.2299C39.6372 11.1754 40.0817 10.2289 40.7813 9.58683L38.9035 7.38384C37.6306 8.56836 36.8284 10.2981 36.8284 12.2243C36.8258 14.1533 37.6279 15.8858 38.8982 17.0703L40.7734 14.8674C40.0765 14.2225 39.6372 13.2815 39.6372 12.2299V12.2299ZM42.9721 15.7419C42.6039 15.7419 42.2462 15.6755 41.9148 15.5593L41.018 18.3628C41.6308 18.5787 42.2856 18.6977 42.9694 18.6977C45.9413 18.7004 48.4214 16.4809 48.9974 13.5334L46.2411 12.9411C45.9282 14.5436 44.5843 15.7447 42.9721 15.7419V15.7419ZM42.98 5.76204C42.2988 5.76204 41.6439 5.87828 41.0311 6.09138L41.9201 8.8977C42.2541 8.78146 42.6091 8.71781 42.9773 8.71781C44.5921 8.72058 45.9387 9.92724 46.2438 11.5324L49 10.9457C48.4346 7.9927 45.9545 5.76481 42.98 5.76204V5.76204Z" fill="#9E9E9E"/>
</svg>